<svg width="148" height="78" viewBox="0 0 148 78" fill="none" xmlns="http://www.w3.org/2000/svg">
<g clip-path="url(#clip0_1_91)">
<path d="M66.5563 56.3602L63.6541 51.2911H62.0763V56.3602H60.0052V43.6842H64.3618C65.3292 43.6842 66.1472 43.8538 66.8225 44.1931C67.4912 44.5323 67.9976 44.989 68.3288 45.5631C68.6599 46.1372 68.8287 46.7765 68.8287 47.4811C68.8287 48.3097 68.5885 49.0599 68.1145 49.7319C67.6406 50.4038 66.9004 50.867 65.907 51.1084L69.03 56.3602H66.5628H66.5563ZM62.0699 49.634H64.3553C65.1279 49.634 65.7122 49.4383 66.1083 49.0534C66.5043 48.662 66.6991 48.14 66.6991 47.4811C66.6991 46.8222 66.5043 46.3133 66.1213 45.9415C65.7317 45.5696 65.1474 45.3869 64.3618 45.3869H62.0763V49.6405L62.0699 49.634Z" fill="black"/>
<path d="M71.4127 48.6098C71.8282 47.8334 72.3995 47.2267 73.1202 46.7961C73.8409 46.3656 74.6395 46.1503 75.5095 46.1503C76.2951 46.1503 76.9834 46.3068 77.5677 46.6135C78.152 46.9266 78.626 47.3115 78.9766 47.7747V46.3134H81.0672V56.3667H78.9766V54.8728C78.626 55.349 78.1455 55.7404 77.5417 56.0601C76.9379 56.3733 76.2497 56.5364 75.4706 56.5364C74.6135 56.5364 73.8214 56.3145 73.1137 55.8709C72.3995 55.4273 71.8347 54.8075 71.4127 54.0116C70.9971 53.2157 70.7894 52.3089 70.7894 51.3042C70.7894 50.2995 70.9971 49.3992 71.4127 48.6228V48.6098ZM78.5481 49.5231C78.2624 49.0143 77.8923 48.6228 77.4314 48.3554C76.9704 48.0879 76.4769 47.9509 75.9445 47.9509C75.4121 47.9509 74.9187 48.0813 74.4577 48.3423C73.9967 48.6033 73.6267 48.9882 73.341 49.4905C73.0553 49.9929 72.9125 50.5931 72.9125 51.2846C72.9125 51.9761 73.0553 52.5829 73.341 53.1113C73.6267 53.6332 74.0032 54.0312 74.4642 54.3052C74.9317 54.5792 75.4251 54.7162 75.9445 54.7162C76.4639 54.7162 76.9704 54.5792 77.4314 54.3117C77.8923 54.0442 78.2624 53.6528 78.5481 53.1374C78.8338 52.622 78.9766 52.0153 78.9766 51.3237C78.9766 50.6322 78.8338 50.0255 78.5481 49.5166V49.5231Z" fill="black"/>
<path d="M86.1964 48.0096V53.5745C86.1964 53.9529 86.2873 54.2204 86.4626 54.3834C86.6379 54.5465 86.9366 54.6314 87.3586 54.6314H88.6312V56.3667H86.995C86.0601 56.3667 85.3459 56.1449 84.8525 55.7078C84.359 55.2707 84.1058 54.5596 84.1058 53.5745V48.0096H82.9241V46.3134H84.1058V43.8147H86.1964V46.3134H88.6312V48.0096H86.1964Z" fill="black"/>
<path d="M99.6362 52.1131H91.9944C92.0528 52.9156 92.3515 53.5614 92.8839 54.0442C93.4163 54.5335 94.072 54.7749 94.8447 54.7749C95.9549 54.7749 96.747 54.3052 97.2015 53.3722H99.435C99.1298 54.2986 98.5844 55.0554 97.7923 55.6426C97.0002 56.2297 96.0133 56.5298 94.8447 56.5298C93.8902 56.5298 93.0332 56.3145 92.2736 55.884C91.5204 55.4534 90.9231 54.8467 90.4946 54.0573C90.0661 53.2744 89.8518 52.361 89.8518 51.3303C89.8518 50.2995 90.0596 49.3861 90.4751 48.6033C90.8906 47.8204 91.4815 47.2137 92.2346 46.7896C92.9878 46.3656 93.8578 46.1503 94.8382 46.1503C95.8186 46.1503 96.6236 46.359 97.3638 46.77C98.104 47.1811 98.6753 47.7617 99.0908 48.5119C99.4999 49.2622 99.7077 50.1233 99.7077 51.0954C99.7077 51.4738 99.6817 51.813 99.6362 52.1197V52.1131ZM97.5456 50.4365C97.5326 49.6732 97.2599 49.0534 96.7275 48.5967C96.1951 48.1335 95.5329 47.9052 94.7473 47.9052C94.0331 47.9052 93.4228 48.1335 92.9163 48.5902C92.4099 49.0469 92.1048 49.6667 92.0074 50.443H97.5456V50.4365Z" fill="black"/>
<path d="M116.316 43.6842L114.102 56.2688H112.829L114.589 46.2351L108.382 56.2688H107.453L104.733 46.2546L102.993 56.2688H101.72L103.934 43.6842H105.278L108.239 54.5922L114.972 43.6842H116.316Z" fill="black"/>
<path d="M118.991 46.3133L120.861 54.7618L125.6 46.3133H126.925L118.484 60.9595H117.14L119.9 56.197L117.575 46.3068H118.991V46.3133Z" fill="black"/>
<path d="M62.0697 62.2187V65.9373H66.4263V67.6335H62.0697V71.5218H66.9717V73.218H59.9986V60.5225H66.9717V62.2187H62.0697Z" fill="black"/>
<path d="M83.7422 63.4974C84.3655 63.8235 84.8525 64.3128 85.2161 64.9587C85.5731 65.6046 85.7485 66.3809 85.7485 67.2943V73.2245H83.6968V67.6074C83.6968 66.7071 83.4695 66.0156 83.028 65.5393C82.58 65.0566 81.9697 64.8217 81.1971 64.8217C80.4245 64.8217 79.8077 65.0631 79.3532 65.5393C78.8987 66.0221 78.6715 66.7071 78.6715 67.6074V73.2245H76.6198V67.6074C76.6198 66.7071 76.3925 66.0156 75.951 65.5393C75.503 65.0566 74.8927 64.8217 74.1201 64.8217C73.3475 64.8217 72.7307 65.0631 72.2762 65.5393C71.8217 66.0221 71.5945 66.7071 71.5945 67.6074V73.2245H69.5233V63.1712H71.5945V64.3194C71.9321 63.9084 72.3606 63.5822 72.8865 63.3538C73.4059 63.1255 73.9643 63.0081 74.5551 63.0081C75.3537 63.0081 76.0679 63.1777 76.6977 63.5169C77.3275 63.8562 77.8079 64.352 78.1521 64.9978C78.4572 64.3911 78.9247 63.9084 79.5674 63.5495C80.2102 63.1907 80.8984 63.0146 81.6386 63.0146C82.4242 63.0146 83.1319 63.1777 83.7552 63.5039L83.7422 63.4974Z" fill="black"/>
<path d="M91.884 63.4778C92.4878 63.1647 93.1761 63.0016 93.9357 63.0016C94.8057 63.0016 95.6043 63.2169 96.325 63.6475C97.0457 64.078 97.6105 64.6848 98.0196 65.4611C98.4286 66.2374 98.6364 67.1312 98.6364 68.1424C98.6364 69.1536 98.4286 70.0539 98.0196 70.8499C97.6105 71.6458 97.0392 72.2656 96.325 72.7092C95.6043 73.1528 94.8057 73.3746 93.9357 73.3746C93.1761 73.3746 92.4943 73.2181 91.9035 72.9114C91.3127 72.6048 90.8257 72.2134 90.4491 71.7502V77.987H88.378V63.1582H90.4491V64.6391C90.7998 64.1759 91.2802 63.791 91.884 63.4713V63.4778ZM96.1043 66.3484C95.8186 65.846 95.442 65.4611 94.981 65.2002C94.52 64.9392 94.0136 64.8087 93.4812 64.8087C92.9488 64.8087 92.4684 64.9457 92.0009 65.2132C91.5334 65.4807 91.1568 65.8721 90.8777 66.381C90.592 66.8898 90.4491 67.4966 90.4491 68.1881C90.4491 68.8796 90.592 69.4864 90.8777 70.0018C91.1633 70.5171 91.5399 70.9086 92.0009 71.1761C92.4684 71.4435 92.9618 71.5805 93.4812 71.5805C94.0006 71.5805 94.5135 71.4435 94.981 71.1695C95.4485 70.8955 95.8251 70.4976 96.1043 69.9757C96.3899 69.4537 96.5328 68.847 96.5328 68.149C96.5328 67.4509 96.3899 66.8572 96.1043 66.3549V66.3484Z" fill="black"/>
<path d="M102.759 59.72V73.218H100.688V59.72H102.759Z" fill="black"/>
<path d="M107.259 72.7352C106.499 72.3046 105.895 71.6979 105.46 70.9085C105.025 70.1256 104.804 69.2123 104.804 68.1815C104.804 67.1507 105.032 66.257 105.473 65.461C105.915 64.6651 106.531 64.0649 107.304 63.6343C108.077 63.2103 108.947 62.995 109.901 62.995C110.856 62.995 111.726 63.2103 112.498 63.6343C113.271 64.0584 113.881 64.6651 114.329 65.461C114.777 66.2504 114.998 67.1573 114.998 68.1815C114.998 69.2058 114.771 70.1126 114.31 70.902C113.849 71.6914 113.225 72.3046 112.433 72.7352C111.641 73.1658 110.765 73.3811 109.81 73.3811C108.856 73.3811 108.012 73.1658 107.252 72.7352H107.259ZM111.317 71.1956C111.784 70.9411 112.161 70.5562 112.453 70.0474C112.745 69.5385 112.888 68.9187 112.888 68.188C112.888 67.4574 112.751 66.8441 112.472 66.3352C112.193 65.8329 111.823 65.448 111.362 65.1936C110.901 64.9391 110.408 64.8086 109.875 64.8086C109.343 64.8086 108.849 64.9391 108.395 65.1936C107.94 65.448 107.583 65.8264 107.317 66.3352C107.051 66.8376 106.914 67.4574 106.914 68.188C106.914 69.271 107.187 70.1061 107.739 70.6932C108.291 71.2804 108.986 71.5805 109.817 71.5805C110.349 71.5805 110.849 71.45 111.317 71.1956Z" fill="black"/>
<path d="M126.068 63.1647L119.932 77.9414H117.79L119.822 73.0549L115.881 63.1647H118.186L120.997 70.8238L123.919 63.1647H126.061H126.068Z" fill="black"/>
<path d="M136.722 68.9709H129.08C129.139 69.7734 129.437 70.4192 129.97 70.902C130.502 71.3913 131.158 71.6327 131.931 71.6327C133.041 71.6327 133.833 71.163 134.287 70.23H136.521C136.216 71.1564 135.67 71.9132 134.878 72.5004C134.086 73.0875 133.099 73.3876 131.931 73.3876C130.976 73.3876 130.119 73.1723 129.36 72.7417C128.606 72.3112 128.009 71.7044 127.581 70.915C127.152 70.1322 126.938 69.2188 126.938 68.188C126.938 67.1573 127.146 66.2439 127.561 65.461C127.977 64.6782 128.567 64.0715 129.321 63.6474C130.074 63.2233 130.944 63.0081 131.924 63.0081C132.905 63.0081 133.71 63.2168 134.45 63.6278C135.19 64.0388 135.761 64.6195 136.177 65.3697C136.586 66.12 136.794 66.9811 136.794 67.9532C136.794 68.3316 136.768 68.6708 136.722 68.9774V68.9709ZM134.638 67.2877C134.625 66.5244 134.352 65.9047 133.82 65.448C133.288 64.9848 132.625 64.7565 131.84 64.7565C131.126 64.7565 130.515 64.9848 130.009 65.4415C129.502 65.8982 129.197 66.5179 129.1 67.2943H134.638V67.2877Z" fill="black"/>
<path d="M147.929 68.9709H140.287C140.345 69.7734 140.644 70.4192 141.176 70.902C141.709 71.3913 142.364 71.6327 143.137 71.6327C144.247 71.6327 145.039 71.163 145.494 70.23H147.727C147.422 71.1564 146.877 71.9132 146.085 72.5004C145.293 73.0875 144.306 73.3876 143.137 73.3876C142.183 73.3876 141.326 73.1723 140.566 72.7417C139.813 72.3112 139.215 71.7044 138.787 70.915C138.358 70.1322 138.144 69.2188 138.144 68.188C138.144 67.1573 138.352 66.2439 138.767 65.461C139.183 64.6782 139.774 64.0715 140.527 63.6474C141.28 63.2233 142.15 63.0081 143.131 63.0081C144.111 63.0081 144.916 63.2168 145.656 63.6278C146.396 64.0388 146.968 64.6195 147.383 65.3697C147.792 66.12 148 66.9811 148 67.9532C148 68.3316 147.974 68.6708 147.929 68.9774V68.9709ZM145.838 67.2877C145.825 66.5244 145.552 65.9047 145.02 65.448C144.487 64.9848 143.825 64.7565 143.04 64.7565C142.325 64.7565 141.715 64.9848 141.209 65.4415C140.702 65.8982 140.397 66.5179 140.3 67.2943H145.838V67.2877Z" fill="black"/>
<path d="M53.3047 0H38.3781V25.7108L42.6437 29.997H55.4342L59.6999 25.7108V6.42606C59.6999 2.87705 56.8367 0 53.3047 0Z" fill="#220568"/>
<path d="M38.3781 25.7108V38.5629H57.5703C58.7455 38.5629 59.6999 37.6039 59.6999 36.4231V25.7108H38.3781Z" fill="#864BDB"/>
<path d="M53.3047 0C49.7662 0 46.9094 2.87053 46.9094 6.42606V59.7591L23.458 50.6322L0 59.7591V8.99649C0 4.02526 4.00597 0 8.95337 0H53.3047Z" fill="#5F01D1"/>
<path d="M53.3047 0C49.7662 0 46.9094 2.87053 46.9094 6.42606V59.7591L23.4579 50.6322V0H53.3112H53.3047Z" fill="#4909AF"/>
<path d="M46.9094 59.7592V70.9868C46.9094 71.7566 46.4809 72.4873 45.8446 72.8722C45.1629 73.218 44.3123 73.218 43.6696 72.8266L23.4579 60.6138L3.2463 72.8266C2.56457 73.2115 1.75299 73.2115 1.07126 72.8722C0.428492 72.4873 0.00646973 71.7566 0.00646973 70.9868V59.7592L22.3542 46.3068C22.6983 46.0915 23.0814 45.9611 23.4644 45.9611C23.8475 45.9611 24.2306 46.0915 24.5747 46.3068L46.9224 59.7592H46.9094Z" fill="#864BDB"/>
<path d="M46.9094 59.7592V70.9868C46.9094 71.7566 46.4809 72.4873 45.8446 72.8722C45.1629 73.218 44.3123 73.218 43.6696 72.8266L23.4579 60.6138V45.9611C23.841 45.9611 24.2241 46.0915 24.5682 46.3068L46.9159 59.7592H46.9094Z" fill="#7544C1"/>
<path d="M37.4821 22.2401C37.2288 21.4703 36.5861 20.9092 35.7745 20.7853L28.6975 19.8002L25.4966 13.3741C25.1136 12.6434 24.3864 12.2194 23.5748 12.2194C23.5293 12.2194 23.4904 12.2194 23.4449 12.265C22.6788 12.4346 21.9971 12.7348 21.653 13.4198L18.5365 19.8458L11.5829 20.7005C10.7323 20.8309 10.0506 21.3855 9.7909 22.1553C9.53768 22.9708 9.74545 23.8254 10.3882 24.3865L15.42 29.1881L14.2708 36.7297C14.141 37.4996 14.4851 38.315 15.1214 38.7848C15.8031 39.2545 16.6536 39.3002 17.3808 38.9152L23.4384 35.6598L23.6917 35.5293L30.048 38.8696C30.7751 39.2153 31.6257 39.1697 32.3074 38.7C32.9437 38.1846 33.2424 37.3691 33.119 36.5993L31.8789 29.4882L36.9562 24.4713C37.5535 23.8711 37.7223 23.0164 37.4691 22.2466L37.4821 22.2401Z" fill="#FEDB41"/>
<path d="M23.7112 35.5228L23.4579 35.6533V12.252C23.5034 12.2063 23.5424 12.2063 23.5878 12.2063C24.3994 12.2063 25.1201 12.6369 25.5096 13.361L28.7105 19.7871L35.7875 20.7722C36.5991 20.9027 37.2354 21.4572 37.4951 22.227C37.7483 22.9969 37.5795 23.858 36.9821 24.4582L31.9049 29.4751L33.145 36.5862C33.2748 37.356 32.9762 38.1715 32.3334 38.6869C31.6517 39.1566 30.8011 39.2023 30.074 38.8565L23.7177 35.5163L23.7112 35.5228Z" fill="#FCBF29"/>
</g>
<defs>
<clipPath id="clip0_1_91">
<rect width="148" height="78" fill="white"/>
</clipPath>
</defs>
</svg>
