<svg width="30" height="29" viewBox="0 0 30 29" fill="none" xmlns="http://www.w3.org/2000/svg">
<path d="M0.171419 11.8433C1.11296 13.4099 3.13229 16.2693 6.40646 18.5061C5.07208 22.2403 5.11865 25.7408 5.27773 27.5617C5.34089 28.2859 6.02998 28.7867 6.73844 28.623C8.51893 28.2117 11.8618 27.1743 15.0004 24.7511C18.1393 27.1743 21.4822 28.2117 23.2626 28.623C23.9711 28.787 24.6602 28.2859 24.7234 27.5617C24.8822 25.741 24.929 22.2403 23.5949 18.5059C26.8688 16.269 28.8884 13.4099 29.8297 11.8433C30.2043 11.2203 29.9408 10.4098 29.2715 10.1259C27.5892 9.41207 24.2752 8.28592 20.3117 8.40098C19.1965 4.5955 17.1018 1.79097 15.903 0.411411C15.4262 -0.137137 14.5744 -0.137137 14.0976 0.411411C12.899 1.79097 10.8041 4.5955 9.68894 8.40098C5.72544 8.28592 2.41138 9.41184 0.729103 10.1259C0.0600662 10.4098 -0.203213 11.2203 0.171419 11.8433Z" fill="url(#paint0_linear_870_4458)"/>
<path d="M7.78558 25.151C9.3678 24.6324 11.4448 23.7325 13.418 22.2091L14.9993 20.9881L16.5808 22.2091C18.5545 23.7327 20.6315 24.6324 22.2134 25.151C22.2091 23.4855 21.9953 21.2316 21.1566 18.8841L20.4844 17.0026L22.1339 15.8755C24.1924 14.4692 25.6898 12.7719 26.6719 11.4274C25.1976 10.9529 23.1695 10.4887 20.8765 10.4887C20.7133 10.4887 20.5482 10.491 20.3862 10.4959L18.389 10.554L17.8271 8.63647C17.126 6.24421 15.9747 4.29512 14.9995 2.94531C14.0243 4.29512 12.8727 6.24421 12.1717 8.6367L11.6098 10.5542L9.61286 10.4963C9.45102 10.4917 9.28618 10.4892 9.12319 10.4892C6.82951 10.4892 4.8012 10.9533 3.3271 11.4276C4.30945 12.7726 5.80705 14.4701 7.86511 15.876L9.51488 17.003L8.84262 18.8848C8.00367 21.2323 7.78996 23.4858 7.78558 25.151Z" fill="url(#paint1_radial_870_4458)"/>
<path opacity="0.38" d="M9.12319 10.4882C9.28618 10.4882 9.45102 10.4905 9.61286 10.4953L11.6098 10.5532L12.1717 8.63573C12.8727 6.24323 14.0243 4.29415 14.9995 2.94434C15.9747 4.29415 17.126 6.24323 17.8271 8.63549L18.389 10.553L20.3862 10.4949C20.5482 10.4903 20.7133 10.4877 20.8765 10.4877C23.1695 10.4877 25.1976 10.9519 26.6719 11.4264C25.6898 12.7709 24.1924 14.4682 22.1339 15.8745L21.8395 16.0756C21.839 16.0756 21.8386 16.0756 21.8381 16.0756C15.8362 16.0756 10.5569 13.8814 7.50846 10.5629C8.02834 10.5156 8.56804 10.4882 9.12319 10.4882Z" fill="#FFEBE3"/>
<g opacity="0.6">
<path d="M0.131292 11.3589C1.07029 12.9213 3.12351 15.578 6.38224 17.8121C6.40737 17.8294 6.43089 17.8494 6.44956 17.8734C6.59504 18.059 6.46294 18.338 6.40853 18.5059C3.09862 16.2232 1.09704 13.3797 0.173483 11.8431C-0.0074935 11.5422 -0.0390787 11.1977 0.0515246 10.8896C0.0183263 11.1241 0.0775752 11.2696 0.131292 11.3589Z" fill="#7C2600"/>
<path d="M29.8722 11.3589C28.9332 12.9213 26.88 15.578 23.6212 17.8121C23.5961 17.8294 23.5726 17.8494 23.5539 17.8734C23.4084 18.059 23.5405 18.338 23.5949 18.5059C26.9049 16.2232 28.9064 13.3797 29.83 11.8431C30.011 11.5422 30.0425 11.1977 29.9519 10.8896C29.9851 11.1241 29.9259 11.2696 29.8722 11.3589Z" fill="#7C2600"/>
<path d="M5.20412 26.2441C5.20966 26.4662 5.21796 26.6769 5.22856 26.875C5.22856 26.8745 5.22856 26.8743 5.22833 26.8739C5.2115 26.6809 5.20597 26.4708 5.20412 26.2441Z" fill="#7C2600"/>
</g>
<path opacity="0.29" d="M3.32691 11.4268C3.3359 11.451 3.36472 11.4895 3.4106 11.5404C4.39363 12.8665 5.86427 14.5085 7.86492 15.8751L9.51469 17.0022L8.84243 18.8839C8.00348 21.2319 7.78954 23.4854 7.78539 25.1506C7.42021 22.3814 7.79 19.7742 8.7652 17.2028C7.49905 16.289 4.1707 13.707 3.32691 11.4268Z" fill="#FFEBE3"/>
<g opacity="0.38">
<path d="M15.9429 1.10015C15.4431 0.551606 14.5502 0.551606 14.0504 1.10015C12.9304 2.33006 11.0639 4.69189 9.84389 7.88587C10.9899 4.34233 12.95 1.72802 14.094 0.411411C14.5707 -0.137137 15.4226 -0.137137 15.8993 0.411411C17.0431 1.72779 19.0027 4.34141 20.1485 7.88403C18.9287 4.69119 17.0627 2.32983 15.9429 1.10015Z" fill="#FFEBE3"/>
</g>
<path opacity="0.6" d="M6.73791 27.9474C8.5184 27.5361 11.8613 25.7864 14.9999 23.3633C18.1385 25.7864 21.4816 27.5361 23.2619 27.9474C23.9699 28.1111 24.7067 27.5995 24.7706 26.8759C24.7572 27.1249 24.7406 27.3544 24.7226 27.5619C24.6594 28.2861 23.9703 28.787 23.2619 28.6233C21.4814 28.2119 18.1385 27.1745 14.9999 24.7516C14.9999 24.7516 14.9999 24.7516 14.9997 24.7516C14.9997 24.7516 14.9997 24.7516 14.9994 24.7516C11.8608 27.1745 8.51794 28.2119 6.73745 28.6233C6.02899 28.7872 5.3399 28.2861 5.27673 27.5619C5.25852 27.3544 5.24192 27.1249 5.22878 26.8759C5.2931 27.5995 6.02991 28.1111 6.73791 27.9474Z" fill="#7C2600"/>
<path d="M14.8596 5.22711C15.0176 5.58635 15.2961 5.81117 15.4816 5.72954C15.6672 5.64792 15.6894 5.29052 15.5314 4.93127C15.3735 4.57203 15.095 4.34722 14.9094 4.42885C14.7238 4.51047 14.7017 4.86787 14.8596 5.22711Z" fill="white"/>
<path d="M15.9155 6.00728C15.9733 6.13871 16.081 6.21826 16.1559 6.18529C16.2308 6.15231 16.2449 6.01904 16.187 5.88761C16.1292 5.75618 16.0215 5.67662 15.9466 5.7096C15.8716 5.7428 15.8578 5.87585 15.9155 6.00728Z" fill="white"/>
<defs>
<linearGradient id="paint0_linear_870_4458" x1="15.0006" y1="29.3027" x2="15.0006" y2="0.598269" gradientUnits="userSpaceOnUse">
<stop stop-color="#E94100"/>
<stop offset="0.2048" stop-color="#EE6112"/>
<stop offset="0.7503" stop-color="#FAB340"/>
<stop offset="1" stop-color="#FFD352"/>
</linearGradient>
<radialGradient id="paint1_radial_870_4458" cx="0" cy="0" r="1" gradientUnits="userSpaceOnUse" gradientTransform="translate(15.0465 3.2922) rotate(180) scale(22.6743 22.6778)">
<stop stop-color="#FFFF00"/>
<stop offset="0.5765" stop-color="#FFE432"/>
<stop offset="1" stop-color="#FFD352"/>
</radialGradient>
</defs>
</svg>
