<svg width="124" height="124" viewBox="0 0 124 124" fill="none" xmlns="http://www.w3.org/2000/svg">
<path d="M104.936 94.4109C90.911 97.4681 75.1331 115.213 68.0138 123.273C67.3875 123.955 66.3934 124.156 65.5512 123.771C64.709 123.387 64.2101 122.504 64.3152 121.584C66.1538 91.4819 80.7131 73.5875 83.0434 70.915L104.936 94.4109Z" fill="#E57E25"/>
<path d="M78.3827 46.478C60.3385 62.2131 54.4378 101.85 52.5778 121.904C52.503 123.016 51.6237 123.904 50.513 123.99C49.4024 124.075 48.3971 123.333 48.1523 122.246C44.3779 106.191 42.5617 89.7371 42.7433 73.2448C42.7433 70.5083 42.8289 67.8573 42.9999 65.3131H43.3206C44.0774 65.2918 44.7336 64.7835 44.9435 64.0561C45.1535 63.3286 44.869 62.5489 44.2399 62.1276L43.2992 61.4221C45.993 33.5007 57.6233 18.5993 60.2316 15.5635L78.3827 46.478Z" fill="#D25627"/>
<path d="M37.4624 65.3352C28.6969 77.0938 32.93 108.222 35.1962 121.328C35.4183 122.229 35.0333 123.171 34.2433 123.658C33.4534 124.146 32.439 124.068 31.7327 123.465C8.55755 102.45 6.01342 70.3807 6.39824 64.9076V64.7793L37.4624 65.3138V65.3352Z" fill="#E57E25"/>
<path d="M101.258 27.8568L87.2548 32.6458C86.4966 32.9095 85.9674 33.5983 85.9079 34.3989L84.4969 49.7706C84.4615 50.5995 83.8948 51.3107 83.0946 51.5303C82.2945 51.7498 81.4442 51.4275 80.9907 50.7327L78.3824 46.4782L73.5293 38.5251C73.0964 37.8099 72.236 37.4763 71.4341 37.7127L57.73 41.8602C56.9301 42.0659 56.0881 41.7382 55.6378 41.0458C55.1875 40.3533 55.2293 39.4508 55.7417 38.803L64.9348 26.403C65.4241 25.7681 65.4912 24.9038 65.1059 24.2009L60.2314 15.5637L57.8369 11.3092C57.4279 10.5886 57.5053 9.69051 58.0315 9.05051C58.5577 8.4105 59.424 8.16099 60.21 8.423L73.2514 13.4044C74.0342 13.6783 74.9043 13.4198 75.4107 12.763L84.7962 0.769207C85.29 0.0873292 86.1802 -0.177843 86.9667 0.122702C87.7531 0.423246 88.2396 1.21456 88.1528 2.05197L87.1693 17.2313C87.0933 18.0682 87.5821 18.8539 88.3666 19.1554L101.408 24.1368C102.16 24.4688 102.632 25.2266 102.599 26.0477C102.566 26.8688 102.034 27.5862 101.258 27.8568Z" fill="#F0C419"/>
<path d="M123.022 71.0648L110.366 78.7613C109.698 79.1898 109.333 79.9615 109.425 80.7496L111.371 96.0786C111.497 96.8927 111.091 97.6971 110.361 98.0791C109.631 98.461 108.739 98.3358 108.142 97.7675L104.936 94.411L98.2439 87.4413C97.6693 86.83 96.7521 86.6889 96.0204 87.0993L83.5349 94.0903C82.7956 94.4736 81.8936 94.3379 81.2999 93.7539C80.7062 93.1699 80.5556 92.2703 80.9266 91.5248L87.2549 77.4358C87.5757 76.7147 87.4507 75.8732 86.9342 75.2765L83.0432 70.9151L77.0784 64.2234C76.5247 63.611 76.4066 62.7203 76.7815 61.9848C77.1564 61.2493 77.9465 60.8215 78.7673 60.9096L92.5784 62.962C93.4084 63.0734 94.2143 62.6315 94.5666 61.8717L101.13 48.1461C101.47 47.3735 102.285 46.9241 103.119 47.049C103.954 47.174 104.602 47.8424 104.7 48.6806L106.988 63.7317C107.106 64.5595 107.746 65.2162 108.57 65.3565L122.381 67.4089C123.189 67.567 123.815 68.2061 123.957 69.0166C124.1 69.827 123.728 70.6412 123.022 71.0648Z" fill="#F0C419"/>
<path d="M43.3205 65.3129H30.3005C29.5385 65.3116 28.8752 65.8334 28.6971 66.5743L25.4261 79.1667C25.2164 79.8955 24.5586 80.4042 23.8005 80.4238C23.0425 80.4433 22.3592 79.9692 22.1123 79.2522L16.8316 66.2536C16.568 65.5765 15.9323 65.1165 15.2068 65.0777L6.39848 64.7784L1.75917 64.6074C1.00666 64.5833 0.346939 64.0977 0.100334 63.3863C-0.146271 62.675 0.0713148 61.8852 0.647442 61.4005L10.6743 53.6398C11.2761 53.1705 11.4942 52.3593 11.2088 51.6515L6.33434 38.6957C6.04871 37.9848 6.27062 37.1707 6.87747 36.7032C7.48433 36.2356 8.32808 36.2286 8.94261 36.686L20.2523 44.6605C20.8751 45.1035 21.7124 45.0948 22.3261 44.6391L32.353 36.8784C32.9672 36.4471 33.7832 36.4373 34.4077 36.8536C35.0321 37.2699 35.3369 38.027 35.175 38.7598L32.2461 51.8867C32.095 52.6024 32.3799 53.3399 32.973 53.7681L43.2992 61.4219L44.2399 62.1274C44.8689 62.5487 45.1534 63.3284 44.9435 64.0559C44.7335 64.7833 44.0774 65.2916 43.3205 65.3129Z" fill="#F0C419"/>
</svg>
